<svg xmlns="http://www.w3.org/2000/svg" style="display:none">
  <symbol id="heart" viewBox="0 0 28 24">
    <path d="M6.5 0H3.5V3H6.5V0Z" fill="currentColor"/>
    <path d="M9.5 0H6.5V3H9.5V0Z" fill="currentColor"/>
    <path d="M3.5 3H0.5V6H3.5V3Z" fill="currentColor"/>
    <path d="M3.5 6H0.5V9H3.5V6Z" fill="currentColor"/>
    <path d="M3.5 9H0.5V12H3.5V9Z" fill="currentColor"/>
    <path d="M12.5 0H9.5V3H12.5V0Z" fill="currentColor"/>
    <path d="M6.5 12H3.5V15H6.5V12Z" fill="currentColor"/>
    <path d="M9.5 15H6.5V18H9.5V15Z" fill="currentColor"/>
    <path d="M12.5 18H9.5V21H12.5V18Z" fill="currentColor"/>
    <path d="M21.5 0H24.5V3H21.5V0Z" fill="currentColor"/>
    <path d="M18.5 0H21.5V3H18.5V0Z" fill="currentColor"/>
    <path d="M24.5 3H27.5V6H24.5V3Z" fill="currentColor"/>
    <path d="M24.5 6H27.5V9H24.5V6Z" fill="currentColor"/>
    <path d="M24.5 9H27.5V12H24.5V9Z" fill="currentColor"/>
    <path d="M15.5 0H18.5V3H15.5V0Z" fill="currentColor"/>
    <path d="M21.5 12H24.5V15H21.5V12Z" fill="currentColor"/>
    <path d="M18.5 15H21.5V18H18.5V15Z" fill="currentColor"/>
    <path d="M15.5 18H18.5V21H15.5V18Z" fill="currentColor"/>
    <path d="M15.5 3H12.5V6H15.5V3Z" fill="currentColor"/>
    <path d="M15.5 21H12.5V24H15.5V21Z" fill="currentColor"/>
  </symbol>
</svg>
